<svg xmlns="http://www.w3.org/2000/svg" width="512" height="512" viewBox="0 0 512 512" fill="none">

  <!-- Background biru -->
  <rect width="512" height="512" fill="#2563eb"/>

  <!-- Sparkles icon -->
  <g transform="translate(256 256) scale(18) translate(-12 -12)">
    <path d="m12 3-1.912 5.813a2 2 0 0 1-1.275 1.275L3 12l5.813 1.912a2 2 0 0 1 1.275 1.275L12 21l1.912-5.813a2 2 0 0 1 1.275-1.275L21 12l-5.813-1.912a2 2 0 0 1-1.275-1.275L12 3Z"
          stroke="white"
          stroke-width="2"
          stroke-linecap="round"
          stroke-linejoin="round"/>

    <path d="M5 3v4"
          stroke="white"
          stroke-width="2"
          stroke-linecap="round"
          stroke-linejoin="round"/>

    <path d="M19 17v4"
          stroke="white"
          stroke-width="2"
          stroke-linecap="round"
          stroke-linejoin="round"/>

    <path d="M3 5h4"
          stroke="white"
          stroke-width="2"
          stroke-linecap="round"
          stroke-linejoin="round"/>

    <path d="M17 19h4"
          stroke="white"
          stroke-width="2"
          stroke-linecap="round"
          stroke-linejoin="round"/>
  </g>

</svg>
